<?xml version="1.0" encoding="UTF-8"?>
<svg id="Calque_1" data-name="Calque 1" xmlns="http://www.w3.org/2000/svg" version="1.1" viewBox="0 0 64 64">
  <defs>
    <style>
      .cls-1 {
        fill: #000;
      }

      .cls-1, .cls-2 {
        stroke-width: 0px;
      }

      .cls-2 {
        fill: #fff;
      }
    </style>
  </defs>
  <path class="cls-1" d="M1.3,41.2c4,13.2,16.2,22.8,30.7,22.8s32-14.3,32-32S49.7,0,32,0,1.1,13.2,0,29.9c2.1,3.5,2.9,5.6,1.3,11.3h0Z"/>
  <path class="cls-2" d="M30.3,24v.2s-7.8,11.4-7.8,11.4c-1.3,0-2.5.2-3.7.7-.5.2-1,.5-1.5.8L0,29.9s-.4,6.5,1.3,11.4l12.2,5c.6,2.7,2.5,5.1,5.2,6.3,4.5,1.9,9.7-.3,11.6-4.8.5-1.2.7-2.4.7-3.7l11.2-8h.3c6.7,0,12.2-5.5,12.2-12.2,0-6.7-5.4-12.2-12.2-12.2-6.7,0-12.2,5.5-12.2,12.2ZM28.5,47c-1.5,3.5-5.5,5.1-9,3.7-1.6-.7-2.8-1.9-3.5-3.4l4,1.6c2.6,1.1,5.5-.1,6.6-2.7,0,0,0,0,0,0,1.1-2.6-.1-5.5-2.7-6.6l-4.1-1.7c1.6-.6,3.4-.6,5,0,1.7.7,3,2,3.7,3.7s.7,3.6,0,5.2M42.5,32.1c-4.5,0-8.1-3.6-8.1-8.1,0-4.5,3.6-8.1,8.1-8.1,4.5,0,8.1,3.6,8.1,8.1,0,4.5-3.6,8.1-8.1,8.1M36.4,24c0-3.4,2.7-6.1,6.1-6.1s6.1,2.7,6.1,6.1c0,3.4-2.7,6.1-6.1,6.1-3.4,0-6.1-2.7-6.1-6.1h0Z"/>
</svg>