<?xml version="1.0" encoding="UTF-8"?>
<svg id="Nintendo_Switch" data-name="Nintendo Switch" xmlns="http://www.w3.org/2000/svg" version="1.1" viewBox="0 0 2500 2427">
  <defs>
    <style>
      .cls-1 {
        fill: #000;
        stroke-width: 0px;
      }
    </style>
  </defs>
  <path class="cls-1" d="M1317.3,763.9V30.4q0-29.6,30.5-29.6c73.6,0,146.7-.5,220.3,0,193.9.9,359.6,148.1,383.7,340.6,2.3,18.5,3.2,37.5,3.2,56,0,245.7.5,491.5,0,737.2,0,194.4-128.2,351.3-318.9,389.7-25.5,5.1-51.8,6.5-77.7,6.9-72.2.9-144.4.5-216.6.5s-24.5-1.4-24.5-25v-742.8h0ZM1773.2,843c0-86.1-67.6-153.6-152.7-153.6s-152.7,67.6-153.2,152.3c-.5,86.1,67.1,154.6,152.3,155,85.2,0,153.2-68,153.6-153.6h0ZM1166.9,767.6v733.5q0,30.5-30.1,30.5c-107.8,0-216.1,1.4-324-.5-202.7-3.7-368.4-163.4-380.9-365.1-.9-18-1.9-36.6-1.9-54.6V408.9c0-75,13.9-146.2,52.8-210.6C559.7,71.1,672.7,4,821.7,1.2c106-1.9,212.4-.5,318.4-.5s26.8.5,26.8,27.8v739.1ZM1041.5,126.2h-246.7c-8.8,0-18,2.3-26.8,4.2-128.7,28.2-213.3,134.7-213.3,271.2-.5,242.5,0,485.5,0,728s1.4,37.9,4.6,56c25.5,132.4,131.4,219.8,266.1,220.8,66.2.5,132.4,0,198.5,0s11.6-.9,17.6-.9V126.2ZM681,2180.5c-20.4,72.7-39.3,140.2-58.8,207.8-8.3,29.6-1.4,26.4-34.7,26.4s-44.4,5.1-57.8-4.6c-12.5-9.3-13-35.2-18-53.7-27.3-95.3-54.1-191.1-81-286.5-1.4-4.6-1.9-9.3-3.7-17.6,25,0,49.1-.5,72.7.5,3.7,0,8.3,9.3,9.7,14.8,21.3,78.7,42.1,157.8,63.9,240.7,3.2-9.3,5.6-15.3,7.4-21.3,20.8-72.2,42.1-143.9,62.5-216.6,3.7-13.9,8.8-19.9,24.5-19.4,45.8.9,45.8,0,58.8,44,18.5,63.9,37.5,127.7,56,191.6,1.9,5.6,3.7,11.1,6.9,22.7,3.2-11.6,5.6-18,6.9-25,19-71.7,38.9-143.9,56.9-216.1,3.2-13.4,8.8-17.6,22.2-17.1,19.4.9,38.9.5,60.6.5-1.4,6.9-2.3,12-3.7,17.1-31,109.7-62,218.9-92.6,328.6-3.7,12.5-8.8,18-22.2,17.1-16.2-1.4-32.9-1.4-49.1,0s-23.1-4.2-27.3-20.4c-17.6-66.2-36.6-131.9-54.6-197.6-.9-3.7-2.8-7.4-5.6-15.7h0ZM1986.1,2053.2h75.4v139.8h165.2v-140.7c24.5,0,47.2-.5,69.9.9,2.8,0,6.9,11.1,6.9,17.1.5,88.4.5,177.2.5,265.6s-.5,42.6,0,63.9c.5,11.1-3.7,15.3-14.8,14.8-19.9-.5-39.8,0-61.1,0v-143h-167.1v143h-65.7c-13,0-9.3-10.6-9.3-17.6v-343.9h0ZM52.1,2387.4c13-23.6,24.1-43,33.3-60.2,34.7,9.3,67.1,21.8,100.9,25.9,28.2,3.7,57.4-1.9,86.5-4.2,6.9-.5,15.3-3.7,19.4-8.3,7.9-9.7,18.5-21.8,18-32.4-.5-9.3-12.5-22.7-22.7-26.4-25-8.8-51.4-13-77.3-19.4-31.5-7.9-63.9-14.8-94.4-25.5-32.4-11.1-54.6-33.8-57.8-69.9-3.7-38.4,13-67.1,44.4-87.5,38.4-25.5,81.5-33.8,126.3-31.9,44,1.9,86.1,11.1,129.1,28.2-8.8,21.3-17.1,41.7-24.5,60.2-31.9-6.9-61.6-16.2-92.1-19.4-23.6-2.8-48.1,1.9-72.2,4.2-5.6.5-13,2.8-16.7,6.5-6.9,7.4-16.2,16.7-16.2,25.5-.5,7.9,8.8,19.9,16.7,22.7,26.4,8.8,53.7,13.9,80.5,21.3,29.6,7.9,60.2,14.8,88.9,25.5,39.3,14.3,65.3,40.3,64.8,86.5-.5,47.2-22.2,80.1-65.7,97.2-62.9,25-128.2,23.6-193,7.9-25.5-6.5-49.5-17.1-76.4-26.4h0ZM1847.2,2290.2c19.4,17.1,37.9,33.3,56.5,49.5-33.8,64.3-124,100.4-202.2,82.4-82.4-19-145.3-93.9-148.1-176.8-3.2-92.6,50.9-170.8,136.5-196.7,80.5-24.5,170.3,7.9,214.7,78.2-18.5,16.7-37.5,33.3-57.8,50.9-25.5-36.1-58.8-56.5-103.2-55.5-31.9.9-58.8,13.4-80.5,37-41.7,45.4-37.9,114.8,7.9,156.4,51.8,47.2,117.5,37.9,176.3-25.5h0ZM1307.2,2130.1h-112.9v-77.3c5.6-.5,11.6-.9,17.6-.9,89.3,0,178.2.5,267.5-.5,14.8,0,21.3,3.7,19.9,19-1.4,13.9-1.4,27.8,0,41.7,1.4,15.3-5.1,18.5-19,18-30.1-.9-60.6-.5-93.5-.5v22.7c0,80.5-.5,161.1.5,242,0,14.8-3.2,21.3-19,19.9-13.9-1.4-27.8-1.4-41.7,0-15.7,1.4-19-5.6-19-19.9.5-80.1.5-160.1.5-240.2-.9-6.5-.9-13.4-.9-24.1h0ZM1026.7,2053.2h79.1v360.1h-79.1v-360.1ZM2113.8,1860.3c0-56.9,45.8-103.7,102.3-103.2,55.5.5,100.9,46.3,101.4,102.7.5,56.9-46.3,103.7-102.3,103.2-56.5-.9-100.9-46.3-101.4-102.7ZM2273.9,1859.8c0-31.9-27.8-59.7-59.7-58.8-31.5.5-57.4,27.3-57.4,58.8s25.5,58.3,57.4,58.8,59.7-26.8,59.7-58.8ZM571.8,1764.9c25-6,41.7,0,56,22.2,21.3,33.3,47.2,63.9,74,100.4v-123.1h39.3c.5,6.9.9,13,.9,19.4,0,49.1.5,98.1-.5,147.2,0,8.3-3.7,23.6-7.4,23.6-13.9,1.4-29.2,6.5-40.7-10.2-22.2-32.9-47.2-64.8-70.8-96.7-2.8-3.7-6-7.4-12.5-15.7v123.1h-38.9c.5-62.9.5-126.3.5-190.2h0ZM240,1954.2c-25.5,7.4-41.2-.5-54.6-21.3-22.2-33.8-47.7-65.3-75-102.7v124.5h-39.3v-190.2c22.7-4.2,40.3-2.8,54.6,19.4,22.2,34.2,48.1,65.7,76.8,97.6v-117.5h37.9c-.5,63.9-.5,126.8-.5,190.2h0ZM1614,1764h38.9v189.3c-28.7,7.9-35.2,5.6-51.8-17.1-22.2-29.6-44-59.2-66.2-88.9-3.2-4.2-6.5-7.9-12.5-14.8v124c-11.6,0-21.3.9-31.5-.5-3.2-.5-8.8-5.6-8.8-8.3-.5-60.6-.5-120.8-.5-181,31-8.3,37-6.5,55.1,17.6,24.5,32.9,49.1,65.7,77.3,103.2v-123.6h0ZM1813.4,1859.8c0-27.3-.5-54.6.5-81.9,0-5.1,6.5-13.9,10.2-13.9,28.2-.5,57.4-2.3,85.2,1.9,52.3,7.9,85.6,50.9,81.9,101.4-3.2,48.6-44.4,87.5-96.3,89.3-22.2.9-44.9-.5-67.6.5-11.1.5-14.8-3.7-14.8-14.8,1.4-27.8.9-55.1.9-82.4h0ZM1854.2,1859.3v11.1c.9,14.3,1.9,28.2,3.2,42.6,18-.5,36.6,1.4,53.7-1.9,23.1-4.2,39.3-29.2,38.9-53.2-.9-24.5-17.6-46.3-41.7-50.9-13.4-2.8-27.8-1.9-41.7-2.8-9.7-.5-13,3.7-12.5,13v42.1ZM1324.7,1763.1v37h-107.4v39.3h99v36.1h-98.6v43.5h106.4v37.9h-107.4q-40.7,0-40.7-41.2c0-44.9.5-89.8-.5-134.7,0-13.4,3.7-18,17.6-17.6,43,.5,86.5-.5,131.4-.5h0ZM877.2,1805.7v-41.2h160.1v40.7h-57.4v149.9h-41.7c-.5-6-1.4-12.5-1.4-19v-96.3c-.5-38.9,5.1-33.8-33.3-34.2h-26.4ZM385.7,1763.1h24.5c4.6,0,9.3.5,15.7.9v191.1h-40.3v-192.1h0Z"/>
  <path class="cls-1" d="M668,460.3c0-80.1,64.3-145.3,143.5-145.3s144.4,65.7,143.9,145.3c-.5,79.6-64.3,143.5-143,144.4-79.1.9-144.4-64.3-144.4-144.4h0ZM2348.9,2368.9v42.6h16.2v-42.6h13.4v-13.4h-45.4v13.4h15.7ZM2389.2,2357.8v53.7h10.6v-31c0-1.9,2.3-2.3,2.8-.5l11.6,31.5h11.1l8.3-32.4c.5-.9,1.9-.9,1.9,0v32.4h12.5v-53.7h-14.3l-12.5,34.2c-.5.9-1.9.9-1.9,0l-11.6-34.2h-18.5Z"/>
</svg>