<?xml version="1.0" encoding="UTF-8"?>
<svg id="Calque_2" data-name="Calque 2" xmlns="http://www.w3.org/2000/svg" viewBox="0 0 108 108">
  <defs>
    <style>
      .cls-1 {
        fill: #000;
      }

      .cls-1, .cls-2 {
        stroke-width: 0px;
      }

      .cls-2 {
        fill: #fff;
      }
    </style>
  </defs>
  <g id="Calque_1-2" data-name="Calque 1">
    <path class="cls-1" d="M108,93c0,8.29-6.71,15-15,15H15c-8.28,0-15-6.71-15-15V15C0,6.71,6.72,0,15,0h78c8.29,0,15,6.71,15,15v78Z"/>
    <path class="cls-2" d="M18,39h15v51h-15v-51ZM25.45,33h-.08c-4.48,0-7.37-3.34-7.37-7.5s2.98-7.5,7.54-7.5,7.37,3.24,7.46,7.5c0,4.16-2.9,7.5-7.55,7.5ZM90,90h-15v-27.3c0-6.59-3.68-11.09-9.58-11.09-4.5,0-6.94,3.04-8.12,5.97-.43,1.05-.3,3.95-.3,5.42v27h-15v-51h15v7.85c2.16-3.35,5.55-7.85,14.21-7.85,10.73,0,18.78,6.75,18.78,21.82v29.18h0Z"/>
  </g>
</svg>